<?xml version="1.0" encoding="utf-8"?>
<!-- Svg Vector Icons : http://www.onlinewebfonts.com/icon -->
<!DOCTYPE svg PUBLIC "-//W3C//DTD SVG 1.1//EN" "http://www.w3.org/Graphics/SVG/1.1/DTD/svg11.dtd">
<svg version="1.1" xmlns="http://www.w3.org/2000/svg" xmlns:xlink="http://www.w3.org/1999/xlink" x="0px" y="0px" viewBox="0 0 256 256" enable-background="new 0 0 256 256" xml:space="preserve">
<metadata> Svg Vector Icons : http://www.onlinewebfonts.com/icon </metadata>
<g><g><g><path fill="#00ab55" d="M174.8,45.4c-10.1,0-29.8,14.3-46.5,14.3c-16.7,0-37.6-14.3-46.5-14.3C20.2,45.4-15,210.6,31,210.6c38.8,0,44-48.3,97.1-48.3c43,0,68.2,47.7,96.8,47.7C270.8,210,236.2,45.4,174.8,45.4z M78.1,138.5c-17.8,0-32.2-14.4-32.2-32.2S60.3,74,78.1,74c17.8,0,32.2,14.4,32.2,32.2C110.3,124,95.9,138.5,78.1,138.5z M163.6,120.6c-3.9,0-7.2-3.2-7.2-7.2c0-3.9,3.2-7.2,7.2-7.2s7.2,3.2,7.2,7.2C170.7,117.4,167.5,120.6,163.6,120.6z M185.5,142c-3.9,0-7.2-3.2-7.2-7.2s3.2-7.2,7.2-7.2s7.2,3.2,7.2,7.2C192.6,138.8,189.4,142,185.5,142z M185.5,99.1c-3.9,0-7.2-3.2-7.2-7.2c0-3.9,3.2-7.2,7.2-7.2s7.2,3.2,7.2,7.2C192.6,95.9,189.4,99.1,185.5,99.1z M207,120.6c-3.9,0-7.2-3.2-7.2-7.2c0-3.9,3.2-7.2,7.2-7.2c4,0,7.2,3.2,7.2,7.2C214.1,117.4,210.9,120.6,207,120.6z M78.1,88.3c-9.9,0-17.9,8-17.9,17.9c0,9.9,8,17.9,17.9,17.9c9.9,0,17.9-8,17.9-17.9C96,96.3,88,88.3,78.1,88.3z"/></g></g></g>
</svg>